<svg width="1024" height="1024" viewBox="0 0 1024 1024" fill="none" xmlns="http://www.w3.org/2000/svg">
  <rect width="1024" height="1024" rx="220" fill="#FFF2DE"/>
  <circle cx="512" cy="512" r="382" fill="#F7D7A3"/>
  <path d="M247 697c0-108 88-196 196-196h138c108 0 196 88 196 196v35c0 53-43 96-96 96H343c-53 0-96-43-96-96v-35Z" fill="#4A3428"/>
  <path d="M289 501 365 262c9-29 48-34 64-8l77 124c8 13 27 13 35 0l77-124c16-26 55-21 64 8l76 239H289Z" fill="#4A3428"/>
  <path d="M344 492 390 350l54 86c13 21-2 49-27 49h-73v7Z" fill="#F7D7A3"/>
  <path d="M680 492 634 350l-54 86c-13 21 2 49 27 49h73v7Z" fill="#F7D7A3"/>
  <path d="M316 650c0-102 83-185 185-185h22c102 0 185 83 185 185v20c0 40-32 72-72 72H388c-40 0-72-32-72-72v-20Z" fill="#FFF8ED"/>
  <circle cx="433" cy="621" r="33" fill="#4A3428"/>
  <circle cx="591" cy="621" r="33" fill="#4A3428"/>
  <circle cx="444" cy="610" r="10" fill="#FFF8ED"/>
  <circle cx="602" cy="610" r="10" fill="#FFF8ED"/>
  <path d="M512 650c25 0 45 15 45 34 0 20-20 36-45 36s-45-16-45-36c0-19 20-34 45-34Z" fill="#C9804C"/>
  <path d="M512 702v33" stroke="#4A3428" stroke-width="18" stroke-linecap="round"/>
  <path d="M512 735c-33 0-58-16-75-41" stroke="#4A3428" stroke-width="18" stroke-linecap="round"/>
  <path d="M512 735c33 0 58-16 75-41" stroke="#4A3428" stroke-width="18" stroke-linecap="round"/>
  <path d="M291 356c-54 0-98 44-98 98v220c0 54 44 98 98 98h54c-28-33-45-76-45-123 0-98 79-177 177-177h70c98 0 177 79 177 177 0 47-17 90-45 123h54c54 0 98-44 98-98V454c0-54-44-98-98-98" stroke="#FFF8ED" stroke-width="36" stroke-linecap="round"/>
  <path d="M211 438h135" stroke="#E7B979" stroke-width="34" stroke-linecap="round"/>
  <path d="M678 438h135" stroke="#E7B979" stroke-width="34" stroke-linecap="round"/>
  <path d="M229 524h92" stroke="#E7B979" stroke-width="30" stroke-linecap="round"/>
  <path d="M703 524h92" stroke="#E7B979" stroke-width="30" stroke-linecap="round"/>
  <path d="M512 171c42 0 76 34 76 76s-76 137-76 137-76-95-76-137 34-76 76-76Z" fill="#C9804C"/>
  <circle cx="512" cy="248" r="27" fill="#FFF8ED"/>
</svg>
